# xmcd CD database file
#
# Track frame offsets:
#	150
#	22165
#	23026
#	45037
#	64402
#	88741
#	107648
#	112899
#	125890
#	141907
#	164180
#	189275
#	195138
#	210990
#	235600
#	257974
#	271575
#	288818
#	302979
#
# Disc length: 4217 seconds
#
# Revision: 0
# Processed by: cddbd v1.5.2PL0 Copyright (c) Steve Scherf et al.
# Submitted via: CDex 1.79
#
DISCID=06107713
DTITLE=Eluveitie - Ategnatos
DYEAR=2019
DGENRE=Merengue
TTITLE0=Ategnatos
TTITLE1=Ancus
TTITLE2=Deathwalker
TTITLE3=Black Water Dawn
TTITLE4=A Cry In The Wilderness
TTITLE5=The Raven Hill
TTITLE6=EThe Silvern Glow
TTITLE7=Ambiramus
TTITLE8=Mine Is The Fury
TTITLE9=The Slumber
TTITLE10=Worship
TTITLE11=Trinoxtion
TTITLE12=Threefold Death
TTITLE13=Breathe
TTITLE14=Rebirth
TTITLE15=Eclipse
TTITLE16=Ategnatos (Acoustic Version)
TTITLE17=Ambiramus (Acoustic Version)
TTITLE18=Threefold Rebirth (Acoustic Folk Medley)
EXTD=YEAR: 2019
EXTT0=
EXTT1=
EXTT2=
EXTT3=
EXTT4=
EXTT5=
EXTT6=
EXTT7=
EXTT8=
EXTT9=
EXTT10=
EXTT11=
EXTT12=
EXTT13=
EXTT14=
EXTT15=
EXTT16=
EXTT17=
EXTT18=
PLAYORDER=
